<svg id="down-arrow-svg" data-name="Layer 1" xmlns="http://www.w3.org/2000/svg" viewBox="0 0 60 31.16"><defs><style></style></defs><title>down-arrow</title><path class="cls-2" d="M86,133.28c.63-.61,3.29-.55,4,0s0,3.12,0,3.12H86S85.37,133.88,86,133.28Z" transform="translate(-72 -129.36)"/><path class="cls-2" d="M118,133.28c-.62-.61-3.29-.55-4,0s0,3.12,0,3.12h4S118.66,133.88,118,133.28Z" transform="translate(-72 -129.36)"/><polygon class="cls-1" points="30 28.72 2 9.12 2 7.05 5.22 3.83 16 8.74 30 2.21 30 0 15.99 6.54 4.78 1.44 0 6.22 0 10.16 30 31.16 30 28.72"/><polygon class="cls-1" points="30 28.72 58 9.12 58 7.05 54.78 3.83 43.99 8.74 30 2.21 30 0 44.01 6.54 55.22 1.44 60 6.22 60 10.16 30 31.16 30 28.72"/></svg>
