<svg id="Layer_1" data-name="Layer 1" xmlns="http://www.w3.org/2000/svg" viewBox="0 0 200 200"><defs><style>.cls-1{fill:#fff;}.cls-2{fill:#005276;}.cls-3{fill:#989898;}.cls-4{fill:#005175;}</style></defs><title>melillo-logo</title><rect class="cls-1" width="200" height="200"/><path class="cls-2" d="M54.15,109.43l-8.36-2.34V99.56H47A31.69,31.69,0,0,0,69,89.53H92.28a4.07,4.07,0,0,1,4,4v.17h23.91l5.18,5.68a2.73,2.73,0,0,1,3.68,4l10.37,11.37h15.05V109.6l-8.69-2.51-7.2-12.38,8-14c1,.51,1.17,2,1.17,3.18.67-.5,3-1.84,1.67-6.19C148.81,75,146,71,144,67.79h-.51a2.82,2.82,0,0,1-1.17-.17,3.54,3.54,0,1,1,4.52-2.17,5.75,5.75,0,0,1-.84,1.33h12.55l3.17-5.51A4,4,0,1,1,163,55.75a4.77,4.77,0,0,1,.67,2.17h0l5-8.7,1.17-2L151.82,40.7,148,35.34,124.06,32l2.67,4a35.63,35.63,0,0,0-24.25,10,32.35,32.35,0,0,1,11.37-.67,37.71,37.71,0,0,0-16.89,9,35.93,35.93,0,0,1,11.21-.84,37.8,37.8,0,0,0-16.89,9,35.89,35.89,0,0,1,11.2-.83,38.67,38.67,0,0,0-13.38,6H63v-.17H41.11a5.19,5.19,0,1,1,0-10.37H76.39a9.54,9.54,0,0,0,7.36-4.35h0a9.74,9.74,0,0,0-3-13.37A10.32,10.32,0,0,0,76.23,38H49.47v1.84l8,4.35a3.16,3.16,0,0,1,3-1.84H75.39a5.2,5.2,0,0,1,.34,10.37H39.94a9.58,9.58,0,0,0-9,10.2,9.71,9.71,0,0,0,9,9H50a19.78,19.78,0,0,1-17.22,9.86l1.5,17.9a2.55,2.55,0,0,1,2.85,2.51,2.65,2.65,0,0,1-2.51,2.84l.83,9.7H54.15v-5.35Z"/><polygon class="cls-2" points="52.31 124.14 45.12 135.35 44.62 135.35 37.26 124.14 37.26 141.03 35.76 141.03 35.76 121.97 37.43 121.97 44.79 133.18 51.98 121.97 53.82 121.97 53.82 141.03 52.31 141.03 52.31 124.14"/><polygon class="cls-2" points="62.01 130.83 73.22 130.83 73.22 132.17 62.01 132.17 62.01 139.7 74.05 139.7 74.05 141.03 60.51 141.03 60.51 121.97 73.72 121.97 73.72 123.47 62.01 123.47 62.01 130.83"/><polygon class="cls-2" points="81.41 121.97 81.41 139.7 92.11 139.7 92.11 141.03 79.91 141.03 79.91 121.97 81.41 121.97"/><rect class="cls-2" x="97.47" y="121.97" width="1.51" height="19.06"/><polygon class="cls-2" points="107.17 121.97 107.17 139.7 117.87 139.7 117.87 141.03 105.83 141.03 105.83 121.97 107.17 121.97"/><polygon class="cls-2" points="124.72 121.97 124.72 139.7 135.59 139.7 135.59 141.03 123.39 141.03 123.39 121.97 124.72 121.97"/><path class="cls-2" d="M139.27,130.83a8.2,8.2,0,1,0,16.39,0h0a8,8,0,0,0-7.36-8.53h-.83c-5.52.17-8.2,4.19-8.2,8.53m17.73,0c0,5-3.18,9.87-9.7,9.87s-9.53-4.85-9.53-9.87S141,121,147.3,121s9.7,4.85,9.7,9.86"/><path class="cls-3" d="M53.15,159.6a7.28,7.28,0,1,0,0-.5v.5m16.22.16a9.2,9.2,0,0,1-2,5.86l2.18,2.17-.84.84-2.17-2a9.2,9.2,0,0,1-5.86,2,9,9,0,0,1-9-8.7,8.87,8.87,0,1,1,17.73-.17h0"/><path class="cls-3" d="M88.1,151.07v10.87c0,9-13.38,9.2-13.38,0V151.07h1.34v10.87a5.35,5.35,0,0,0,10.7,0h0V151.07Z"/><polygon class="cls-3" points="37.09 159.1 47.3 159.1 47.3 160.27 37.09 160.27 37.09 167.12 47.97 167.12 47.97 168.46 35.76 168.46 35.76 151.07 47.8 151.07 47.8 152.41 37.09 152.41 37.09 159.1"/><rect class="cls-3" x="95.12" y="151.07" width="1.34" height="17.39"/><polygon class="cls-3" points="106.33 152.24 100.14 152.24 100.14 151.07 114.02 151.07 114.02 152.24 107.67 152.24 107.67 168.46 106.33 168.46 106.33 152.24"/><rect class="cls-3" x="118.2" y="151.07" width="1.34" height="17.39"/><polygon class="cls-3" points="127.57 159.1 137.77 159.1 137.77 160.27 127.57 160.27 127.57 167.12 138.6 167.12 138.6 168.46 126.23 168.46 126.23 151.07 138.27 151.07 138.27 152.41 127.57 152.41 127.57 159.1"/><path class="cls-3" d="M154.83,154.41a5.39,5.39,0,0,0-5.19-2.34c-2,0-5.18.84-5.18,3.51,0,2.18,2.34,2.68,5.35,3.35,3.34.67,6.86,1.17,6.86,5s-4,4.84-6.86,4.84a8,8,0,0,1-7.19-3.84l1.17-.67a7,7,0,0,0,5.85,3.18c2.18,0,5.52-.67,5.52-3.68,0-2.68-2.84-3.18-5.69-3.68-3.17-.67-6.52-1.34-6.52-4.52,0-3.68,3.68-4.85,6.69-4.85a6.5,6.5,0,0,1,6.36,3Z"/><path class="cls-4" d="M112.85,107.25V96.05H99.47l.34,4.68a3.07,3.07,0,0,1,3,2.68,2.93,2.93,0,0,1-2.51,3l.67,8.69h20.23v-5.35Z"/><path class="cls-4" d="M75.06,107.25,67.87,94.54a31.14,31.14,0,0,1-10.37,6.19l3,3.35a2.48,2.48,0,1,1,3.34,3.68l5.69,6.35H82.92v-4.68Z"/></svg>