<svg id="Layer_1" data-name="Layer 1" xmlns="http://www.w3.org/2000/svg" viewBox="0 0 200 200"><defs><style>.cls-1{fill:#fff;}.cls-2{fill:#ff4081;}</style></defs><title>lou-logo</title><rect class="cls-1" width="200" height="200"/><g id="Page-1"><g id="LOU_vector_feb28" data-name="LOU vector feb28"><path id="Shape" class="cls-2" d="M37.52,114.26c0,2.87,2.17,4.12,5.07,4.12H62.83l.73,10c-8,.72-16.63.72-25.31.72-9.41,0-13.75-5-13.75-12.91V69.62h13Z"/><path id="Shape-2" class="cls-2" d="M119.36,100c0,23.79-6.44,31-25.78,31-18.62,0-25.06-7.21-25.06-31S75,69,93.58,69C112.92,69,119.36,75.49,119.36,100Zm-36.52,0c0,15.86,2.87,20.19,11.46,20.19s11.46-4.34,11.46-20.19S102.89,79.81,94.3,79.81C85,79.09,82.84,84.14,82.84,100Z"/><path id="Shape-3" class="cls-2" d="M176.4,105.73c0,18-6.51,25.27-23.14,25.27-18.09,0-24.6-6.5-24.6-25.27V69.62h13v36.11c0,10.83,2.9,14.44,10.85,14.44s10.85-3.61,10.85-14.44V69.62h13Z"/></g></g></svg>