<svg id="Layer_1" data-name="Layer 1" xmlns="http://www.w3.org/2000/svg" xmlns:xlink="http://www.w3.org/1999/xlink" viewBox="0 0 201 201"><defs><style>.cls-1,.cls-10,.cls-2,.cls-7{fill:none;}.cls-2{clip-path:url(#clip-path);clip-rule:evenodd;}.cls-3,.cls-9{fill:#fff;}.cls-3{stroke:#000;stroke-miterlimit:10;}.cls-4{clip-path:url(#clip-path-3);}.cls-5{fill:#78c8fc;}.cls-6{clip-path:url(#clip-path-4);}.cls-7{stroke:#78c8fc;}.cls-10,.cls-7{stroke-linecap:round;stroke-linejoin:round;stroke-width:3.5px;}.cls-8{clip-path:url(#clip-path-5);}.cls-10{stroke:#fff;}</style><clipPath id="clip-path"><rect class="cls-1" x="18.71" y="50.38" width="162.58" height="99.25"/></clipPath><clipPath id="clip-path-3" transform="translate(0.5 0.5)"><path class="cls-2" d="M131.79,82.2v-22a8,8,0,0,0-7.95-7.95H28.55a7.94,7.94,0,0,0-7.95,7.95v79.56a8,8,0,0,0,8,7.95h95.29a7.94,7.94,0,0,0,7.95-7.95V118l40.53,20.76c3.92,2,7.08.06,7.08-4.33V65.77c0-4.4-3.17-6.33-7.08-4.33L131.79,82.2Z"/></clipPath><clipPath id="clip-path-4" transform="translate(0.5 0.5)"><rect class="cls-1" x="18.71" y="50.38" width="162.58" height="99.25"/></clipPath><clipPath id="clip-path-5" transform="translate(0.5 0.5)"><polygon class="cls-2" points="97.67 100.47 66.92 122.21 66.92 78.73 97.67 100.47 97.67 100.47 97.67 100.47"/></clipPath></defs><title>vidvision-logo</title><rect class="cls-3" x="0.5" y="0.5" width="200" height="200"/><g class="cls-4"><rect class="cls-5" x="16.38" y="48.04" width="168.25" height="104.92"/></g><g class="cls-6"><path class="cls-7" d="M131.79,82.2v-22a8,8,0,0,0-7.95-7.95H28.55a7.94,7.94,0,0,0-7.95,7.95v79.56a8,8,0,0,0,8,7.95h95.29a7.94,7.94,0,0,0,7.95-7.95V118l40.53,20.76c3.92,2,7.08.06,7.08-4.33V65.77c0-4.4-3.17-6.33-7.08-4.33L131.79,82.2Z" transform="translate(0.5 0.5)"/></g><g class="cls-8"><rect class="cls-9" x="62.69" y="74.51" width="40.2" height="52.93"/></g><polygon class="cls-10" points="98.17 100.97 67.42 122.71 67.42 79.23 98.17 100.97 98.17 100.97 98.17 100.97"/></svg>